<svg xmlns="http://www.w3.org/2000/svg" viewBox="0 0 237.16 316.21"><defs><style>.cls-1{fill:#0fb94d;}</style></defs><g id="Layer_2" data-name="Layer 2"><g id="Layer_1-2" data-name="Layer 1"><rect x="73.41" y="242.8" width="56.47" height="11.29"/><rect x="95.99" y="39.53" width="28.23" height="11.29"/><rect x="135.52" y="39.53" width="28.23" height="11.29"/><path class="cls-1" d="M78.08,129.87H113.9a16.94,16.94,0,0,0,31.94,0H158.1a5.65,5.65,0,0,0,5.65-5.64V106.05a11.26,11.26,0,0,0-8.55-11L138.83,91,123.1,70a5.66,5.66,0,0,0-4.52-2.26H73.41A5.65,5.65,0,0,0,68.89,70L53.15,91,36.79,95.1a11.28,11.28,0,0,0-8.56,11v18.18a5.65,5.65,0,0,0,5.65,5.64H46.14a16.94,16.94,0,0,0,31.94,0Zm51.79,0a5.65,5.65,0,1,1,5.65-5.64A5.65,5.65,0,0,1,129.87,129.87ZM46.14,118.58H39.53V106.05l18.31-4.58A5.63,5.63,0,0,0,61,99.38L76.23,79.05h39.52L131,99.38a5.62,5.62,0,0,0,3.15,2.09l18.31,4.58v12.53h-6.62a16.94,16.94,0,0,0-31.94,0H78.08a16.94,16.94,0,0,0-31.94,0Zm10.33,5.65a5.65,5.65,0,1,1,5.64,5.64A5.64,5.64,0,0,1,56.47,124.23Z"/><rect x="56.47" y="39.53" width="28.23" height="11.29"/><rect x="73.41" y="220.22" width="39.53" height="11.29"/><path class="cls-1" d="M62.11,160.93a8.47,8.47,0,0,0-8.47-8.47H36.7a8.48,8.48,0,0,0-8.47,8.47v16.94a8.49,8.49,0,0,0,8.47,8.47H53.64a8.48,8.48,0,0,0,8.47-8.47ZM50.82,175.05H39.53v-11.3H50.82Z"/><path class="cls-1" d="M53.64,242.8H36.7a8.49,8.49,0,0,0-8.47,8.47v16.94a8.48,8.48,0,0,0,8.47,8.47H53.64a8.47,8.47,0,0,0,8.47-8.47V251.27A8.48,8.48,0,0,0,53.64,242.8Zm-2.82,22.59H39.53V254.1H50.82Z"/><path class="cls-1" d="M62.11,206.1a8.48,8.48,0,0,0-8.47-8.47H36.7a8.49,8.49,0,0,0-8.47,8.47V223a8.48,8.48,0,0,0,8.47,8.47H53.64A8.47,8.47,0,0,0,62.11,223ZM50.82,220.22H39.53v-11.3H50.82Z"/><path d="M225.58,206.3,192,172.7V28.23A28.26,28.26,0,0,0,163.75,0H28.23A28.26,28.26,0,0,0,0,28.23V288c0,15.3,12.61,28.23,27.53,28.23H146.81V304.92H27.53c-8.8,0-16.24-7.76-16.24-16.94V28.23A17,17,0,0,1,28.23,11.29H53l4.08,8.18a5.65,5.65,0,0,0,5,3.12h67.76a5.62,5.62,0,0,0,3.6-1.3,5.75,5.75,0,0,0,1.45-1.82l1.94-3.88,2.15-4.3h24.74a17,17,0,0,1,16.94,16.94v184l-13.92-13.91a21.62,21.62,0,0,0-30.57,30.57l20.68,20.68-.39.79a65.32,65.32,0,0,0,1.61,61.73v4.12h11.3v-5.65a5.62,5.62,0,0,0-.81-2.9,54.08,54.08,0,0,1-2-52.25L168.8,251a5.64,5.64,0,0,0-1.06-6.52L144.19,220.9a10.32,10.32,0,0,1,14.6-14.6l23.55,23.56,16.94,16.94,8-8L192,223.53V188.68l25.61,25.61a28,28,0,0,1,8.27,20v82h11.3v-82A39.3,39.3,0,0,0,225.58,206.3Z"/><rect x="73.41" y="197.63" width="39.53" height="11.29"/><rect x="73.41" y="265.39" width="62.11" height="11.29"/><rect x="73.41" y="175.05" width="90.34" height="11.29"/><rect x="73.41" y="152.46" width="90.34" height="11.29"/></g></g></svg>