<svg xmlns="http://www.w3.org/2000/svg" viewBox="0 0 190.8 190.8"><defs><style>.cls-1{fill:#0fb94d;}</style></defs><g id="Layer_2" data-name="Layer 2"><g id="Layer_1-2" data-name="Layer 1"><path d="M137.13,190.8a53.15,53.15,0,0,1-18.24-3.26,194.5,194.5,0,0,1-70.62-45,194.37,194.37,0,0,1-45-70.62A52.72,52.72,0,0,1,.57,46,54.16,54.16,0,0,1,28.38,6.35,53.2,53.2,0,0,1,53.82,0a6,6,0,0,1,5.83,4.71L69,48.39a6,6,0,0,1-1.62,5.46l-16,16A157,157,0,0,0,121,139.4l16-16a6,6,0,0,1,5.46-1.62l43.67,9.36A6,6,0,0,1,190.8,137a53.09,53.09,0,0,1-6.36,25.44,54.11,54.11,0,0,1-39.61,27.81,52.61,52.61,0,0,1-7.7.57ZM49.05,12.19A41.77,41.77,0,0,0,14.47,67.84,180.83,180.83,0,0,0,123,176.33a41.76,41.76,0,0,0,55.65-34.59l-35.52-7.61-16.71,16.7a6,6,0,0,1-6.75,1.18A168.74,168.74,0,0,1,38.79,71.16,6,6,0,0,1,40,64.41l16.7-16.7Z"/><path class="cls-1" d="M184.84,101.36a6,6,0,0,1-6-6A83.57,83.57,0,0,0,95.4,11.92,6,6,0,0,1,95.4,0a95.39,95.39,0,0,1,95.4,95.4,6,6,0,0,1-6,6Z"/><path class="cls-1" d="M161,101.36a6,6,0,0,1-6-6A59.69,59.69,0,0,0,95.4,35.77a6,6,0,0,1,0-11.92A71.63,71.63,0,0,1,167,95.4,6,6,0,0,1,161,101.36Z"/><path class="cls-1" d="M137.14,101.36a6,6,0,0,1-6-6A35.82,35.82,0,0,0,95.4,59.62a6,6,0,0,1,0-11.92,47.75,47.75,0,0,1,47.7,47.7A6,6,0,0,1,137.14,101.36Z"/></g></g></svg>