<svg xmlns="http://www.w3.org/2000/svg" viewBox="0 0 289.57 260.16"><defs><style>.cls-1{fill:#0fb94d;}</style></defs><g id="Layer_2" data-name="Layer 2"><g id="Layer_1-2" data-name="Layer 1"><path class="cls-1" d="M144.79,56.56a5.66,5.66,0,1,0,5.65,5.65A5.66,5.66,0,0,0,144.79,56.56Z"/><path class="cls-1" d="M56.12,158.36A5.34,5.34,0,1,0,50.78,153,5.34,5.34,0,0,0,56.12,158.36Z"/><path d="M190,0c-50.91,0-92.7,35.11-95.94,79.32C45.6,81.76,0,116.72,0,164c0,19.76,7.82,38.91,22.06,54.08A34.43,34.43,0,0,1,13,250.51a5.65,5.65,0,0,0,4,9.65,62.36,62.36,0,0,0,43.22-17.47c11.25,3.84,25.93,6.16,39.35,6.16,50.91,0,92.7-35.09,95.94-79.3a127.31,127.31,0,0,0,33.9-6A62.38,62.38,0,0,0,272.61,181a5.66,5.66,0,0,0,4-9.65,34.38,34.38,0,0,1-9.09-32.41c14.23-15.17,22.05-34.32,22.05-54.08C289.57,35.7,240.46,0,190,0ZM99.54,237.54c-13.35,0-28.56-2.62-38.75-6.67a5.66,5.66,0,0,0-6.26,1.43,51.07,51.07,0,0,1-25.39,15.07,45.68,45.68,0,0,0,3.45-33.67,5.59,5.59,0,0,0-1.38-2.39c-12.83-13.21-19.9-30-19.9-47.29,0-39.86,40.4-73.53,88.23-73.53,45.16,0,84.84,31.41,84.84,73.53C184.38,204.56,146.32,237.54,99.54,237.54ZM258.36,132.13a5.75,5.75,0,0,0-1.38,2.39,45.78,45.78,0,0,0,3.45,33.67,51,51,0,0,1-25.38-15.07,5.67,5.67,0,0,0-6.27-1.43c-8.83,3.51-21.43,5.94-33.32,6.53-1.65-21.39-12.32-41.49-30.56-56.42h73.77a5.66,5.66,0,1,0,0-11.31H147.52a105.51,105.51,0,0,0-42.09-11.14c3.25-38,40-68,84.6-68,47.83,0,88.23,33.67,88.23,73.53C278.26,102.12,271.2,118.92,258.36,132.13Z"/><path class="cls-1" d="M144.79,147.68H77.48a5.34,5.34,0,1,0,0,10.68h67.31a5.34,5.34,0,0,0,0-10.68Z"/><path class="cls-1" d="M144.79,181H50.9a5.66,5.66,0,0,0,0,11.32h93.89a5.66,5.66,0,0,0,0-11.32Z"/><path class="cls-1" d="M233.46,62.21H166.15a5.35,5.35,0,0,0,0,10.69h67.31a5.35,5.35,0,0,0,0-10.69Z"/></g></g></svg>