<?xml version="1.0"?>
<svg xmlns="http://www.w3.org/2000/svg" id="Layer_1_1_" enable-background="new 0 0 64 64" height="512" viewBox="0 0 64 64" width="512" class=""><g><path d="m54.949 38c-.136-2.184-.708-4.247-1.636-6.109l-3.419 1.974-1-1.732 3.427-1.978c-1.181-1.772-2.703-3.295-4.475-4.475l-1.978 3.426-1.732-1 1.974-3.418c-1.862-.928-3.925-1.5-6.109-1.636v3.948h-2v-3.949c-2.184.136-4.247.708-6.109 1.636l1.969 3.411-1.732 1-1.974-3.418c-1.772 1.18-3.295 2.703-4.475 4.475l3.427 1.978-1 1.732-3.419-1.974c-.928 1.862-1.5 3.925-1.636 6.109h3.948v2h-3.949c.136 2.184.708 4.247 1.636 6.109l3.419-1.974 1 1.732-3.427 1.978c1.181 1.772 2.703 3.295 4.475 4.475l1.974-3.418 1.732 1-1.969 3.411c1.862.928 3.924 1.5 6.109 1.636v-3.949h2v3.949c2.184-.136 4.247-.708 6.108-1.636l-1.974-3.418 1.732-1 1.978 3.426c1.772-1.181 3.295-2.703 4.475-4.475l-3.427-1.978 1-1.732 3.419 1.974c.928-1.862 1.5-3.924 1.636-6.109h-3.947v-2h3.949zm-12.516-1.019c.352.595.567 1.279.567 2.019 0 2.206-1.794 4-4 4s-4-1.794-4-4 1.794-4 4-4c.74 0 1.424.215 2.019.567l4.273-4.274 1.414 1.414z" data-original="#000000" class="active-path" style="fill:#0FB94D" data-old_color="#000000"/><path d="m48 17.586v-12.172l-2 2v12.172z" data-original="#000000" class="active-path" style="fill:#0FB94D" data-old_color="#000000"/><path d="m36.586 4h-7.172l-2 2h7.172z" data-original="#000000" class="active-path" style="fill:#0FB94D" data-old_color="#000000"/><circle cx="39" cy="39" r="2" data-original="#000000" class="active-path" style="fill:#0FB94D" data-old_color="#000000"/><path d="m26 21h18v-13h-8v5h-2v-5h-8z" data-original="#000000" class="active-path" style="fill:#0FB94D" data-old_color="#000000"/><path d="m37.414 6h7.172l2-2h-7.172z" data-original="#000000" class="active-path" style="fill:#0FB94D" data-old_color="#000000"/><path d="m7 37h2v2h-2z" data-original="#000000" class="active-path" style="fill:#0FB94D" data-old_color="#000000"/><path d="m2 41h2v2h-2z" data-original="#000000" class="active-path" style="fill:#0FB94D" data-old_color="#000000"/><path d="m6 12h12v2h-12z" data-original="#000000" class="active-path" style="fill:#0FB94D" data-old_color="#000000"/><path d="m2 12h2v2h-2z" data-original="#000000" class="active-path" style="fill:#0FB94D" data-old_color="#000000"/><path d="m8 16h2v2h-2z" data-original="#000000" class="active-path" style="fill:#0FB94D" data-old_color="#000000"/><path d="m12 16h13v2h-13z" data-original="#000000" class="active-path" style="fill:#0FB94D" data-old_color="#000000"/><path d="m55.633 26.188c2.857 3.703 4.367 8.133 4.367 12.812 0 11.579-9.42 21-21 21-10.452 0-19.396-7.797-20.807-18.135-.067-.496-.49-.865-.99-.865h-11.203v2h10.347c1.912 10.892 11.499 19 22.653 19 12.682 0 23-10.317 23-23 0-5.125-1.654-9.979-4.784-14.035z" data-original="#000000" class="active-path" style="fill:#0FB94D" data-old_color="#000000"/><path d="m18.021 38.045c.265-5.927 3.053-11.493 7.649-15.272l-1.27-1.545c-4.786 3.935-7.781 9.641-8.314 15.772h-5.086v2h6.022c.536 0 .976-.421.999-.955z" data-original="#000000" class="active-path" style="fill:#0FB94D" data-old_color="#000000"/><path d="m53 21.586h2v2.828h-2z" transform="matrix(.707 -.707 .707 .707 -.447 44.92)" data-original="#000000" class="active-path" style="fill:#0FB94D" data-old_color="#000000"/></g> </svg>
