<svg xmlns="http://www.w3.org/2000/svg" viewBox="0 0 150 150"><defs><style>.cls-1{fill:#0fb94d;}.cls-2{fill:none;stroke:#fff;stroke-miterlimit:10;stroke-width:2px;}.cls-3{fill:#fff;}</style></defs><g id="Layer_2" data-name="Layer 2"><g id="Layer_1-2" data-name="Layer 1"><circle class="cls-1" cx="75" cy="75" r="75"/><circle class="cls-2" cx="75" cy="75" r="67.22"/><path class="cls-3" d="M43.32,89.07H37.6V85.22a1.07,1.07,0,0,0-1.07-1.07h-.3a1.07,1.07,0,0,0-1.07,1.07v7H33.3a1.12,1.12,0,0,1-1.12-1.12V88.66a2.54,2.54,0,0,0-2.53-2.54H26.8a.71.71,0,0,0,0,1.42h2.85a1.12,1.12,0,0,1,1.11,1.12v2.41A2.54,2.54,0,0,0,33.3,93.6h1.86v5.45H32.58a1.52,1.52,0,0,0-1.51,1.52v1.18a.21.21,0,0,0,.21.22h10.2a.22.22,0,0,0,.22-.22v-1.18a1.52,1.52,0,0,0-1.52-1.52H37.6V91.54l5.21-.75a.87.87,0,0,0,.82-.78v-.7A.28.28,0,0,0,43.32,89.07Z"/><path class="cls-3" d="M61.55,77.39l-14.11-.78a1.11,1.11,0,0,1,.13-2.21l11.89.65.06-1.18a3.54,3.54,0,0,0-2.82-3.65l-9-1.74a1.11,1.11,0,0,1,.43-2.18l9,1.74a5.8,5.8,0,0,1,4.61,6Z"/><path class="cls-3" d="M121.61,57.52l-6.31-.35A3.81,3.81,0,0,1,112.07,55l-5.66-11.88a8.12,8.12,0,0,0-6.9-4.63L61.66,36.4a8.12,8.12,0,0,0-7.38,3.84L47.35,51.42a3.78,3.78,0,0,1-3.45,1.8l-6.31-.34A2.43,2.43,0,0,0,35,55.17l-.25,4.46A2.45,2.45,0,0,0,36.25,62L41,64,39.77,86.56,99.6,89.87l-.11,1.93a6.57,6.57,0,0,0,6.19,6.92l3,.16a6.56,6.56,0,0,0,6.91-6.18L117,68.24l5-1.51a2.43,2.43,0,0,0,1.72-2.19l.25-4.45A2.44,2.44,0,0,0,121.61,57.52Zm-.16,6.9a.24.24,0,0,1-.15.2l-6.45,1.95-1.43,26a4.36,4.36,0,0,1-4.58,4.1l-3-.17a4.34,4.34,0,0,1-4.1-4.57l.23-4.15L42.1,84.47l1.21-21.85L37.12,60a.23.23,0,0,1-.13-.22l.24-4.45a.23.23,0,0,1,.24-.21l6.31.35a6,6,0,0,0,5.46-2.85L56.17,41.4a5.93,5.93,0,0,1,5.37-2.79L99.39,40.7a5.92,5.92,0,0,1,5,3.37L110.06,56a6,6,0,0,0,5.12,3.42l6.31.35a.22.22,0,0,1,.2.24Z"/><path class="cls-3" d="M106.59,59,52.36,56l7.45-12a3.05,3.05,0,0,1,2.75-1.43l35.37,2a3.06,3.06,0,0,1,2.57,1.73ZM56.21,54,103,56.6,98.5,47.18a.8.8,0,0,0-.69-.46l-35.37-2a.82.82,0,0,0-.74.39Z"/><path class="cls-3" d="M109.2,80l-14.1-.78.18-3.39a5.8,5.8,0,0,1,5.23-5.41l9.11-.74a1.11,1.11,0,0,1,.18,2.21l-9.1.74A3.54,3.54,0,0,0,97.5,76l-.07,1.18,11.89.66A1.11,1.11,0,1,1,109.2,80Z"/><path class="cls-3" d="M87.81,79.05l-19-1a1.11,1.11,0,0,1,.12-2.22l19,1a1.11,1.11,0,1,1-.12,2.22Z"/><path class="cls-3" d="M87.81,79.05l-.13,0a1.1,1.1,0,0,1-.9-1.28l1.07-6.25-18.25-1L70,76.82a1.11,1.11,0,1,1-2.21.14l-.53-8.81,23.22,1.28L89,78.13A1.1,1.1,0,0,1,87.81,79.05Z"/><path class="cls-3" d="M106.4,90.25l-5.7-.32a1.11,1.11,0,0,1,.12-2.21l5.7.31a1.11,1.11,0,0,1-.12,2.22Z"/></g></g></svg>