<svg xmlns="http://www.w3.org/2000/svg" width="60" height="59.999" viewBox="0 0 60 59.999"><g transform="translate(0 0)"><path d="M39.99,61.212V44.792a10.978,10.978,0,0,0,5.461-13.181l-6.461,6.41a2.424,2.424,0,0,1-3.417-.01L31.981,34.42A2.424,2.424,0,0,1,31.971,31l6.409-6.461a10.95,10.95,0,0,0-4.75-.454,10.994,10.994,0,0,0-3.64,20.7v16.42a10.978,10.978,0,0,0-5.461,13.181l6.461-6.41a2.424,2.424,0,0,1,3.417.01L38,71.584A2.424,2.424,0,0,1,38.009,75L31.6,81.462a10.977,10.977,0,0,0,4.75.455A11,11,0,0,0,39.99,61.212Z" transform="translate(-22.989 -23.003)" fill="#f2f2f2"/><path d="M104,184h2v18h-2Z" transform="translate(-92.999 -163.001)" fill="#b0b0ae"/><path d="M216.848,273.264,208,272l-2.142,6h-5.715L198,272l-9.257,1.984A6,6,0,0,0,184,279.85V288h38v-8.8a6,6,0,0,0-5.151-5.94Z" transform="translate(-162.999 -240.001)" fill="#f2f2f2"/><path d="M222,279.2V290h-7v10H191v-9h-7V279.85a6,6,0,0,1,4.742-5.866L198,272l5,14,5-14,8.849,1.264A6,6,0,0,1,222,279.2Z" transform="translate(-162.999 -240.001)" fill="#0fb94d"/><path d="M328,384h2v14h-2Z" transform="translate(-289 -338.001)" fill="#334562"/><path d="M360,376h9v2h-9Z" transform="translate(-317 -331.001)" fill="#334562"/><path d="M296,368h2v2h-2Z" transform="translate(-261 -324.001)" fill="#334562"/><path d="M424,352h2v16h-2Z" transform="translate(-373 -310.001)" fill="#334562"/><path d="M232,352h2v16h-2Z" transform="translate(-204.999 -310.001)" fill="#334562"/><path d="M265.87,265.807l.766,9.192,5.457-3.119L269.636,264Z" transform="translate(-234.636 -233.001)" fill="#f2f2f2"/><path d="M356.34,271.881,361.8,275l.789-9.458L358.8,264Z" transform="translate(-313.797 -233.001)" fill="#f2f2f2"/><path d="M268.725,53.145a21.824,21.824,0,0,0,8.55,0L278,53l4,4.666V57a9,9,0,0,0-18,0v.666L268,53Z" transform="translate(-232.999 -44)" fill="#7a432a"/><path d="M314.118,182.316H312v-2h2.117a12.447,12.447,0,0,0,3.592-.526l.58,1.914A14.385,14.385,0,0,1,314.118,182.316Z" transform="translate(-275 -159.317)" fill="#f7a468"/><circle cx="1.5" cy="1.5" r="1.5" transform="translate(43 14.998)" fill="#7a432a"/><circle cx="1.5" cy="1.5" r="1.5" transform="translate(34.001 14.998)" fill="#7a432a"/><path d="M274.705,105.132a3.038,3.038,0,0,1-3.049,3.024,3.143,3.143,0,0,1-.485-.041l-2.742-.457a24.014,24.014,0,0,0-7.89,0l-2.742.457A3.031,3.031,0,0,1,254.485,104h20A3.056,3.056,0,0,1,274.705,105.132Z" transform="translate(-224.484 -93)" fill="#a8dcbb"/><path d="M276,30v4H256V30a6,6,0,0,1,6-6h8a6,6,0,0,1,1.9.308c.11.037.22.077.327.125A6,6,0,0,1,276,30Z" transform="translate(-225.999 -23)" fill="#a8dcbb"/><path d="M304,72h8v4h-8Z" transform="translate(-268 -65)" fill="#f2f2f2"/><path d="M69.98,48.269l-4.946-.7-3.045-1.239V44a9.939,9.939,0,0,0,3.95-7h.05a4,4,0,0,0,1.089-7.849,3.975,3.975,0,0,0-.089-2.325V23a7,7,0,0,0-7-7h-8a7,7,0,0,0-7,7v3.826a3.975,3.975,0,0,0-.089,2.325A4,4,0,0,0,45.989,37h.05a9.939,9.939,0,0,0,3.95,7v2.375l-3.1,1.487-5.375,1.145a7.06,7.06,0,0,0-5.486,6.107,12.125,12.125,0,0,0-2.039-1.5V38.383A11.967,11.967,0,0,0,39.4,24.3a1,1,0,0,0-1.66-.4l-6.45,6.4a1.446,1.446,0,0,1-1.02.415,1.411,1.411,0,0,1-.992-.417l-3.59-3.59a1.411,1.411,0,0,1-.417-.992,1.45,1.45,0,0,1,.41-1.016l6.41-6.454a1,1,0,0,0-.4-1.655,11.993,11.993,0,0,0-9.7,21.788V53.615A11.967,11.967,0,0,0,16.58,67.7a1,1,0,0,0,1.66.4l6.45-6.4a1.446,1.446,0,0,1,1.02-.415,1.411,1.411,0,0,1,.992.418l3.59,3.59a1.411,1.411,0,0,1,.417.992,1.45,1.45,0,0,1-.41,1.016l-6.41,6.454a1,1,0,0,0,0,1.415.977.977,0,0,0,.394.24,12.1,12.1,0,0,0,11.98-2.762A5.009,5.009,0,0,0,40.989,76h3c.069,0,11-2.3,11-2.3V76h2V73.7l10.794,2.272a1.039,1.039,0,0,0,.206.021h3a5,5,0,0,0,5-5V55.2a7.047,7.047,0,0,0-6.009-6.93ZM55.989,59.023,54.549,55h2.875Zm-4-13.862a9.954,9.954,0,0,0,8,0v1.687L58.07,53H53.908l-1.919-6.152Zm7.762,9.167,1.869-5.992,2.1.855-.6,7.162-3.366-1.924.032-.089ZM60.1,29.671a24.921,24.921,0,0,0-8.22,0l-2.742.454a2.036,2.036,0,0,1-2.34-1.676A2.105,2.105,0,0,1,46.773,28H65.2a2.035,2.035,0,0,1-1.91,2.152,2.11,2.11,0,0,1-.452-.024ZM58.989,26h-6V24h6Zm9,7a2,2,0,0,1-2,2V31.012L66,31A2,2,0,0,1,67.989,33Zm-21-10a5,5,0,0,1,5-5h8a5,5,0,0,1,5,5v3h-4V23a1,1,0,0,0-1-1h-8a1,1,0,0,0-1,1v3h-4ZM44.577,34.412A2,2,0,0,1,45.979,31l.01.01V35a2.015,2.015,0,0,1-1.412-.587ZM47.989,36V32.077a4.069,4.069,0,0,0,1.476.024l.611-.1a1.5,1.5,0,1,0,2.59-.426,22.949,22.949,0,0,1,6.646,0A1.5,1.5,0,1,0,61.9,32l.611.1a5.125,5.125,0,0,0,1.476-.024V36a8,8,0,0,1-16,0Zm2.39,12.4,1.846,5.92-.038.014.034.094-3.366,1.924-.579-6.944Zm-8.441,2.555,4.382-.934.669,8.06a1,1,0,0,0,.53.8,1.919,1.919,0,0,0,.962-.016L52.9,56.34l2.085,5.831v2.286l-5.759-.444L44.989,62.2V58h-2V61.34l-.606-.26A.991.991,0,0,0,41.989,61h-4v-5.15A5.039,5.039,0,0,1,41.938,50.957ZM29.231,73.926a10.125,10.125,0,0,1-2.665-.03l5.159-5.2a3.436,3.436,0,0,0,.985-2.419,3.387,3.387,0,0,0-1-2.407l-3.595-3.59a3.387,3.387,0,0,0-2.407-1,3.444,3.444,0,0,0-2.425.99l-5.19,5.151A9.982,9.982,0,0,1,23.445,55.1a1,1,0,0,0,.545-.89V37.789a1,1,0,0,0-.544-.89,9.992,9.992,0,0,1,5.967-18.8l-5.159,5.2a3.436,3.436,0,0,0-.985,2.419,3.387,3.387,0,0,0,1,2.407l3.595,3.59a3.387,3.387,0,0,0,2.407,1,3.444,3.444,0,0,0,2.425-.99l5.192-5.154A9.982,9.982,0,0,1,32.537,36.9a1,1,0,0,0-.545.89V54.209a1,1,0,0,0,.544.89,10.131,10.131,0,0,1,3.454,2.915V69.949A10.035,10.035,0,0,1,29.231,73.926ZM73.989,61h-4a8.4,8.4,0,0,0-1,.341V58h-2v3h-8v2H65.12l-2.375,1.015-5.756.445V62.171l2.081-5.832,4.419,2.535a1,1,0,0,0,1.375-.375.983.983,0,0,0,.125-.414l.7-8.4,4.006.567a5.037,5.037,0,0,1,4.294,4.95Z" transform="translate(-15.988 -16)" fill="#424242"/><path d="M401.072,376.01v2.921l-8.992-.691,5.2-2.23Z" transform="translate(-343.074 -329.012)" fill="#fff"/><path d="M205.137,450.471,197.9,452H195a3,3,0,0,1-3-3v-1h3.586l1.706,1.707A1,1,0,0,0,198,450h4.9Z" transform="translate(-169.999 -394.001)" fill="#fff"/><path d="M228,396.926V400a3,3,0,0,1-3,3h-2.9l-18.9-3.979c-.068-.014-4.792-.021-4.792-.021l-1.706-1.707A1,1,0,0,0,196,397h-4v-5h3.795s7.019,2.989,7.125,3Z" transform="translate(-169.999 -345.001)" fill="#fff"/><path d="M296,368h2v2h-2Z" transform="translate(-261 -324.001)" fill="#424242"/><path d="M318.29,181.7l-.58-1.914a12.362,12.362,0,0,1-3.594.526H312v2h2.116A14.348,14.348,0,0,0,318.29,181.7Z" transform="translate(-275 -159.317)" fill="#424242"/><path d="M104,184h2v18h-2Z" transform="translate(-92.999 -163.001)" fill="#424242"/></g></svg>