<svg xmlns="http://www.w3.org/2000/svg" width="60" height="59.998" viewBox="0 0 60 59.998"><g transform="translate(0)"><path d="M99,168a11,11,0,1,0,11,11A11,11,0,0,0,99,168Z" transform="translate(-77 -147)" fill="#424242"/><path d="M113,184a9,9,0,1,1-9,9A8.994,8.994,0,0,1,113,184Z" transform="translate(-91 -161)" fill="#a8dcbb"/><path d="M59.911,41.579A.987.987,0,0,0,59,40.991H51v-40a1,1,0,0,0-1-1H38a1,1,0,0,0-1,1v19.6a29.541,29.541,0,0,0-4.912-5.462A2.961,2.961,0,0,0,33,12.992a3,3,0,0,0-1.637-2.662L32.974,3.2a.961.961,0,0,0-.187-.837.989.989,0,0,0-.775-.375,4.66,4.66,0,0,1-2.825-.862,7.1,7.1,0,0,0-7.7,0,4.66,4.66,0,0,1-2.825.862,4.66,4.66,0,0,1-2.825-.862A6.646,6.646,0,0,0,12-.008a.971.971,0,0,0-.787.387,1,1,0,0,0-.175.875l2.337,8.812A3.006,3.006,0,0,0,11.9,15.154C4.525,21.392,0,33.129,0,40.991c0,13,11.175,13,22,13,5.825,0,10.962-.137,14.837-1.6l6.412,7.262a1,1,0,0,0,1.412.088.578.578,0,0,0,.087-.088l15-17A1,1,0,0,0,59.911,41.579ZM13.337,2.155a5.711,5.711,0,0,1,1.475.7,6.594,6.594,0,0,0,3.85,1.137A6.646,6.646,0,0,0,22.5,2.855a5.058,5.058,0,0,1,5.65,0A6.81,6.81,0,0,0,30.762,3.9L29.374,9.992h-1.2l.812-4.837L27,4.83l-.85,5.162H19.824l-.837-4.2-1.962.4.762,3.8h-2.35ZM22,51.991c-12.437,0-20-.737-20-11,0-7.7,4.587-19.349,12.025-25H29.962a27.971,27.971,0,0,1,7.025,8.325V40.991h-8a1,1,0,0,0-1,1,1.017,1.017,0,0,0,.25.662l7.175,8.125C31.924,51.891,27.249,51.991,22,51.991Z" transform="translate(0 0.009)" fill="#424242"/><path d="M275.349,57,262.575,71.486,249.8,57h6.775a1,1,0,0,0,1-1V16h10V56a1,1,0,0,0,1,1Z" transform="translate(-218.576 -13.999)" fill="#0fb94d"/><path d="M121,96a1,1,0,0,1,0,2l-16.1-.025A.988.988,0,0,1,104,97a1,1,0,0,1,1-1Z" transform="translate(-91 -83.999)" fill="#a8dcbb"/><g transform="translate(15.437 30.088)"><path d="M126.75,243.937h-1.912l-.363.875H123.5l1.837-4.112h.937l1.837,4.112h-1Zm-.3-.725-.65-1.575-.65,1.575Z" transform="translate(-123.5 -240.7)" fill="#424242"/><path d="M166.987,244.05v.762H163.8V240.7h3.112v.762H164.75v.888h1.912v.737H164.75v.95h2.237Z" transform="translate(-158.763 -240.7)" fill="#424242"/><path d="M195.4,240.8h1.862a2.761,2.761,0,0,1,1.188.25,1.956,1.956,0,0,1,.8.725,2.064,2.064,0,0,1,.287,1.075,2.032,2.032,0,0,1-.287,1.075,1.955,1.955,0,0,1-.8.725,2.556,2.556,0,0,1-1.188.25H195.4Zm1.825,3.325a1.364,1.364,0,0,0,.987-.35,1.179,1.179,0,0,0,.362-.925,1.223,1.223,0,0,0-.362-.925,1.42,1.42,0,0,0-.987-.35h-.875v2.55Z" transform="translate(-186.413 -240.788)" fill="#424242"/></g></g></svg>