<?xml version="1.0" encoding="utf-8"?>
<!-- Generator: Adobe Illustrator 25.0.0, SVG Export Plug-In . SVG Version: 6.00 Build 0)  -->
<svg version="1.1" id="Layer_1" xmlns="http://www.w3.org/2000/svg" xmlns:xlink="http://www.w3.org/1999/xlink" x="0px" y="0px"
	 viewBox="0 0 52.6 41.9" style="enable-background:new 0 0 52.6 41.9;" xml:space="preserve">
<style type="text/css">
	.st0{fill:#353535;}
	.st1{fill:#0FB94D;}
	.st2{fill:#A8DCBB;}
	.st3{fill:#F2F2F2;}
	.st4{fill:#6D6B73;}
	.st5{fill:#FEFEFE;}
	.st6{fill:#939290;}
	.st7{fill:#6C6A72;}
	.st8{fill:#FCFCFC;}
</style>
<path class="st0" d="M48.6,28.8c1,0,2,0,2.9,0c0.8,0,1.1,0.3,1.1,1.1v3.3c0,0.8-0.3,1.2-1.1,1.2h-6.8c0.8,1.2,1.1,2.7,0.7,4.2
	c-0.5,2.3-2.9,3.7-5.2,3.2c-1.6-0.4-2.8-1.6-3.2-3.1c-0.1-0.4-0.3-0.5-0.7-0.5H16.2c-0.3-0.1-0.6,0.2-0.7,0.5c0,0,0,0,0,0
	c-0.5,1.9-2.2,3.2-4.1,3.3c-2,0-3.7-1.4-4.2-3.3c-0.1-0.4-0.3-0.5-0.7-0.5c-1.5,0-3.1,0-4.7,0c-1,0-1.9-0.7-1.9-1.8
	c0-0.1,0-0.2,0-0.2c0-2.3,0-4.7,0-7c0-0.3,0.1-0.6,0.1-0.9c1-2.8,1.9-5.7,2.9-8.6c0.3-1.3,1.5-2.2,2.8-2.1c2.6,0,5.1,0,7.7,0
	c0.4,0,0.5-0.1,0.5-0.5c0-2.7,0-5.4,0-8.1c-0.1-1.4,0.8-2.7,2.1-3l19.3-5.8c1-0.4,2.2,0,2.9,0.8c0.3,0.3,0.5,0.6,0.8,0.9
	c0.7,0.8,0.6,2-0.2,2.6c0,0,0,0-0.1,0c-0.2,0.1-0.3,0.4-0.3,0.6c0,0.6,0,1.2,0,1.8c0.1,0.6-0.2,1.2-0.8,1.4
	c-0.1,0.1-0.3,0.2-0.4,0.3c0.2,0.1,0.3,0.2,0.5,0.4c0.8,0.9,1,2.2,0.5,3.2c-0.4,1-1.4,1.7-2.6,1.7c-1.5-0.2-2.6-1.5-2.5-2.9
	c0-0.8,0-0.8,0.7-0.8h0.1c0.9,0,0.9,0,0.9,0.9c0,0.4,0.3,0.8,0.7,0.9c0.4,0.1,0.8-0.1,1-0.5c0,0,0,0,0,0c0.3-0.4,0.2-0.9-0.1-1.2
	c-0.2-0.2-0.4-0.4-0.6-0.7c-0.5-0.8-0.4-1.8,0.3-2.5c0.4-0.3,0.6-0.8,0.5-1.2c0-0.2,0-0.3,0-0.5L31,7.1L24.6,9
	c-0.3,0.1-0.6,0.3-0.9,0.6c-1.6,2-3.2,3.9-4.8,5.9c-0.2,0.2-0.3,0.5-0.2,0.7c0.1,4,0.3,8.1,0.4,12.1c0,0.3,0,0.5,0.4,0.5
	c2.1,0,4.2,0,6.4,0c-0.2-0.5-0.4-1.1-0.4-1.7c0-0.3-0.2-0.2-0.3-0.2h-1.4c-1,0-1.8-0.9-1.8-1.9c0,0,0,0,0,0v0c0-1-0.1-2,0.5-2.9
	c0.8-1.1,2-2,3.3-2.4c0.5-0.2,1.1-0.3,1.7-0.2c1.4,0,2.7,0,4.1,0c0.3,0,0.7-0.2,0.8-0.5c0.4-0.6,0.8-1.2,1.3-1.8
	c0.6-0.9,1.7-1.5,2.8-1.5h5c1.2,0,2.4,0.5,3.2,1.4c0.2,0.2,0.5,0.5,0.7,0.7c0.4,0.5,1,0.7,1.6,0.7c1.5,0,3,0,4.5,0
	c0.9,0,1.2,0.3,1.2,1.2c0,1.1,0,2.3,0,3.4c0.1,1.9-1.3,3.5-3.1,3.8c-0.3,0-0.4,0.1-0.4,0.4C49.1,27.9,48.9,28.4,48.6,28.8z"/>
<path class="st1" d="M14,33.5c-1.9-1.4-4.6-1.1-6.1,0.8c-0.4,0.5-0.6,1.1-0.8,1.7c0,0.1,0,0.3-0.1,0.3c-0.6,0-1.1,0-1.6,0
	c-0.2,0-0.1-0.3-0.1-0.4c0-0.7,0-1.5,0-2.2s-0.3-1.1-1-1.1s-1.3,0-2,0c-0.4,0-0.5-0.1-0.5-0.5c0-0.7,0-1.3,0-2
	c0-0.4,0.1-0.5,0.5-0.6l8.9-2.4c1-0.3,1.1-0.4,1.1-1.5c0-1.9,0-3.7,0-5.6c0-0.4,0.1-0.5,0.5-0.5c1.3,0,1.3,0,1.3,1.4L14,33.5
	L14,33.5z"/>
<path class="st2" d="M29.5,21.3c0.3,0,0.6,0,0.9,0c1.2-0.2,2.3,0.1,3.3,0.8c0.2,0.1,0.5,0.2,0.7,0.2c3.1,0,6.1,0,9.2,0
	c0.3,0,0.6-0.1,0.9-0.3h0c1.7-1.9,3.9-1.6,6-1.6c0.3,0,0.3,0.1,0.3,0.4c0,0.9,0,1.7,0,2.6c0,1-0.9,1.8-1.9,1.8c-0.1,0-0.1,0-0.2,0
	c-0.2,0-0.3-0.2-0.4-0.3c-1-1.6-3-2-4.6-1.1c-0.4,0.3-0.8,0.6-1.1,1.1c-0.1,0.2-0.3,0.3-0.6,0.3h-9.8c-0.2,0-0.5-0.1-0.6-0.3
	c-1-1.6-3-2-4.6-1.1c-0.4,0.3-0.8,0.6-1.1,1.1c-0.1,0.1-0.1,0.3-0.4,0.3c-0.6,0-1.2,0-1.8,0c-0.1,0-0.2,0-0.2-0.1
	c0-0.6-0.2-1.3,0.3-1.9c0.8-1.1,2.1-1.7,3.4-1.7L29.5,21.3z"/>
<path class="st3" d="M2.3,27.4c0.8-2.5,1.7-4.9,2.5-7.3c0.1-0.5,0.5-0.8,1-0.7c1.5,0,3,0,4.4,0c0.3,0,0.4,0.1,0.4,0.4
	c0,1.7,0,3.4,0,5c0,0.3-0.1,0.4-0.3,0.5l-7.6,2C2.5,27.4,2.4,27.4,2.3,27.4z"/>
<path class="st1" d="M37.7,3.1l-3.2,1l-18,5.5c-0.7,0.2-0.7,0.2-0.7-0.5c0-0.9,0.1-1.1,1-1.4c6.3-1.9,12.7-3.8,19-5.7
	c0.5-0.2,1.1,0,1.5,0.4c0.2,0.2,0.4,0.4,0.6,0.5L37.7,3.1z"/>
<path class="st1" d="M17.1,21.1c0.1,4.3,0.3,7.6,0.4,11c0,0.3,0,0.5-0.4,0.5c-1.3,0-1.3,0-1.3-1.4c0-6.3,0-12.6,0-18.9
	c0-0.5,0.2-0.7,0.6-0.8s0.4,0,0.4,0.3c0,0.8,0,1.6,0.1,2.5C17,16.9,17,19.5,17.1,21.1z"/>
<path class="st4" d="M14,37.3c0,1.5-1.2,2.7-2.6,2.8c-1.6-0.1-2.7-1.5-2.6-3c0.1-1.4,1.2-2.5,2.6-2.6C12.9,34.5,14.1,35.8,14,37.3z"
	/>
<path class="st4" d="M43.9,37.3c-0.1,1.5-1.4,2.6-2.8,2.5c-1.5-0.1-2.6-1.4-2.5-2.8c0.1-1.4,1.2-2.5,2.6-2.5
	C42.7,34.5,43.9,35.8,43.9,37.3z"/>
<path class="st5" d="M37.7,34.4c-0.3,0.4-0.5,0.9-0.6,1.3c-0.1,0.5-0.3,0.6-0.7,0.6c-3.5,0-7,0-10.5,0c-0.4,0-0.5-0.1-0.5-0.5
	c0-1.3,0-1.3,1.3-1.3L37.7,34.4L37.7,34.4z"/>
<path class="st5" d="M42.6,28.8H32c0.2-0.5,0.4-1.1,0.4-1.7c0-0.3,0.2-0.2,0.3-0.2h9c0.2,0,0.3,0,0.3,0.3
	C42.1,27.8,42.3,28.3,42.6,28.8z"/>
<path class="st6" d="M19.7,36.3c-1.2,0-2.4,0-3.6,0c-0.3,0-0.4-0.1-0.4-0.4c0-1.5,0-1.5,1.3-1.5c2,0,4.1,0,6.1,0
	c0.4,0,0.5,0.1,0.5,0.5c0,1.4,0,1.4-1.3,1.4L19.7,36.3z"/>
<path class="st3" d="M36.4,20.4h-1.7c-0.2,0-0.4,0-0.5-0.1c-0.4-0.1-0.4-0.3-0.1-0.6c1.6-2.2,1.3-2.1,3.8-2.1c0.6,0,0.8,0.2,0.7,0.8
	c0,0.5,0,1,0,1.6c0,0.4-0.1,0.5-0.5,0.5C37.5,20.4,37,20.4,36.4,20.4z"/>
<path class="st7" d="M27.2,26.9c0-1,0.8-1.8,1.8-1.8c0,0,0,0,0,0c1,0,1.9,0.8,2,1.8c0,1-0.8,1.9-1.8,2c-1,0-1.9-0.8-2-1.8
	C27.2,27,27.2,26.9,27.2,26.9z"/>
<path class="st7" d="M47.4,26.9c-0.1,1-0.9,1.7-1.9,1.7c-1-0.1-1.7-0.9-1.7-1.9c0.1-0.9,0.8-1.7,1.8-1.7
	C46.6,25.1,47.4,25.9,47.4,26.9z"/>
<path class="st3" d="M44.5,19.7c-0.4,0.5-1.1,0.7-1.7,0.7c-0.7-0.1-1.4-0.1-2.1,0c-0.3,0-0.4-0.1-0.4-0.4c0-0.7,0-1.3,0-2
	c0-0.3,0.1-0.4,0.4-0.4c1.2-0.2,2.4,0.3,3.1,1.3L44.5,19.7z"/>
<path class="st1" d="M22.4,30.8c1.7-0.7,2.5,0.6,3.4,1.7C24.6,32.9,23.8,32.5,22.4,30.8z"/>
<path class="st1" d="M30.2,32.5c-1.7,0.2-2,0.1-3.4-1.7C28.5,30.1,29.3,31.4,30.2,32.5z"/>
<path class="st1" d="M31.2,30.8c1.7-0.7,2.5,0.6,3.4,1.7C33,33.1,32.1,31.9,31.2,30.8z"/>
<path class="st1" d="M35.6,30.8c1.7-0.6,2.5,0.6,3.4,1.7C37.3,33.1,36.5,31.8,35.6,30.8z"/>
<path class="st1" d="M40,30.8c1.7-0.6,2.5,0.6,3.4,1.7C41.7,33.1,40.9,31.9,40,30.8z"/>
<path class="st1" d="M44.4,30.8c1.7-0.6,2.5,0.6,3.4,1.7C46.1,33.1,45.2,31.9,44.4,30.8z"/>
<path class="st3" d="M2.7,34.4c0.8,0,0.8,0,0.8,0.9s0,1-0.9,1s-0.9,0-0.9-1S1.8,34.4,2.7,34.4z"/>
<path class="st1" d="M21.6,32.6h-2c-0.2,0-0.3-0.1-0.3-0.3s0-0.7,0-1.1c0-0.2-0.1-0.4,0.1-0.5c0.2-0.1,0.5-0.1,0.6,0.1
	C20.5,31.4,21,31.9,21.6,32.6z"/>
<path class="st8" d="M18.6,13c0-0.1,0-0.1,0-0.2c0-0.6-0.2-1.4,0-1.8s1-0.4,1.6-0.6l0.7-0.2L18.6,13z"/>
<path class="st1" d="M48.8,30.7h1.8c0.2,0,0.3,0.1,0.3,0.3c0,0.4,0,0.8,0,1.1c0,0.2,0.1,0.4-0.1,0.5c-0.2,0.1-0.4,0-0.5-0.2
	c-0.5-0.5-1-1-1.5-1.6L48.8,30.7z"/>
<path d="M10.9,30.7c-1.3,0-1.3,0-1.3-1.4c0-0.4,0.1-0.5,0.4-0.5c0.6,0,1.2,0,1.8,0c0.4,0,0.4,0.1,0.4,0.5
	C12.3,30.7,12.3,30.7,10.9,30.7z"/>
</svg>
