<svg xmlns="http://www.w3.org/2000/svg" width="60" height="59.902" viewBox="0 0 60 59.902"><g transform="translate(0)"><path d="M7.714,16.122a9.593,9.593,0,0,0,13.462,10.5l3.858,3.849h5.133l-.2-5.351-3.644-3.638A9.584,9.584,0,0,0,15.8,8.05c-3.174.6-.773,2.265-.432,2.6l4.081,4.072a3.826,3.826,0,0,1,.177,5.213,3.846,3.846,0,0,1-5.225-.177l-4.081-4.072C9.978,15.352,8.307,12.956,7.714,16.122Z" transform="translate(-6.657 -6.998)" fill="#a8dcbb" fill-rule="evenodd"/><path d="M206.625,201.935l2.123,6.258,9.537,5.38,2.882,2.874a9.584,9.584,0,0,0,10.522,13.433c3.173-.6.772-2.265.431-2.6l-4.082-4.072a3.574,3.574,0,1,1,5.048-5.039l4.081,4.072c.341.34,2.012,2.735,2.611-.43a9.593,9.593,0,0,0-13.462-10.5l-2.968-2.961a2.778,2.778,0,0,1-2.7-4.646l1.753-1.751a3.179,3.179,0,0,1-5.074-3.705c-1.131,1.467-6.569-3.846-6.8-4.08-2.36-1.891-8.8,2.446-3.9,7.769Z" transform="translate(-180.83 -171.057)" fill="#a8dcbb" fill-rule="evenodd"/><path d="M333.748,241.172a2.782,2.782,0,1,0,3.939,3.929l4.211-4.2a2.782,2.782,0,1,0-3.941-3.929l-.063.063-2.4,2.382Z" transform="translate(-293.92 -208.523)" fill="#fff" fill-rule="evenodd"/><path d="M272.229,154.649l-.916.914-.575.831c-1.277,1.848,1.758,5.508,4.61,4.249l2.56-.654.371-2.4.843-.841a3.178,3.178,0,0,0-4.5-4.489l-1.658,1.655Z" transform="translate(-238.745 -133.637)" fill="#fff" fill-rule="evenodd"/><path d="M237.329,113.967l-3.313,3.306c-2.29,2.284,1.257,6.037,4.5,4.489l2.661-.794.652-2.511a3.178,3.178,0,0,0-4.5-4.489Z" transform="translate(-205.949 -99.834)" fill="#fff" fill-rule="evenodd"/><path d="M89.771,148.451c.15,2.481-1.007,4.99-4.437,8.409l-3.724,3.715,2.059,8.183,10.32,4.169,5.97-5.961c2.236-2.226,2.671-1.751,5.312-1.374A7.318,7.318,0,0,0,109.5,164.3L97.84,152.658c1.427-2.252,1.571-4.847.234-6.471-.016-.021,0-.03.011-.018l2.068,2.065c1.983,1.911,6.241,3.533,8.395.734.033-.06.067-.117.1-.183.325-.871-1.223-2.269-2.812-3.856l-1.226-1.223-4.5-4.49-.83-.826a1.718,1.718,0,0,0-2.416,0L95.353,139.9l-3.9,3.889a5.458,5.458,0,0,0-1.039,1.46,6.432,6.432,0,0,0-.645,3.193Z" transform="translate(-72.045 -121.779)" fill="#fff" fill-rule="evenodd"/><path d="M14.787,334.318l12.379,12.352a1.97,1.97,0,0,0,1.106.557h.619A1.959,1.959,0,0,0,30,346.671l4.483-4.473a2,2,0,0,0,0-2.825L22.1,327.02a2.011,2.011,0,0,0-2.831,0l-4.483,4.474A2,2,0,0,0,14.787,334.318Z" transform="translate(-12.536 -288.231)" fill="#0fb94d" fill-rule="evenodd"/><path d="M301.662,201.826a3.178,3.178,0,0,0,5.074,3.7l2.293-.777,1.007-2.515a3.178,3.178,0,1,0-4.5-4.489l-3.3,3.292a3.173,3.173,0,0,0-.475.6A.763.763,0,0,1,301.662,201.826Z" transform="translate(-265.999 -173.797)" fill="#fff" fill-rule="evenodd"/><path d="M56.922,41.944A10.563,10.563,0,0,0,45.673,39.6l-1.689-1.684a3.8,3.8,0,0,0,.386-.334l4.212-4.2a3.662,3.662,0,0,0,0-5.174h0a3.663,3.663,0,0,0-2.792-1.064,4.05,4.05,0,0,0-3.831-4.605,4.047,4.047,0,0,0-4.317-5.307,4.1,4.1,0,0,0,.028-.469A4.024,4.024,0,0,0,36.483,13.9a4.071,4.071,0,0,0-5.742,0l-2.7,2.686-.209-.209a2.6,2.6,0,0,0-3.658,0l-.893.892-2.6-2.6A10.462,10.462,0,0,0,8.963.579c-.49.093-1.982.373-2.287,1.514-.3,1.116.765,2.031,1.28,2.47.052.045,4.2,4.179,4.2,4.179a2.945,2.945,0,0,1,.176,3.968,2.965,2.965,0,0,1-3.984-.175S4.206,8.392,4.161,8.34C3.721,7.83,2.8,6.768,1.686,7.068.546,7.375.265,8.862.172,9.351A10.473,10.473,0,0,0,14.3,21.059l3.015,3.007a7.265,7.265,0,0,0-.477,3.047c.143,2.358-1.107,4.671-4.18,7.734l-3.2,3.19a2.891,2.891,0,0,0-3.355.521L1.615,43.03a2.882,2.882,0,0,0,0,4.07L13.994,59.452a2.889,2.889,0,0,0,4.073,0l4.483-4.473a2.885,2.885,0,0,0,.521-3.35L28.517,46.2c1.614-1.61,1.875-1.567,3.585-1.282.288.048.614.1.981.156A7.608,7.608,0,0,0,37.291,44l1.992,1.984a10.546,10.546,0,0,0-.7,4.27.879.879,0,0,0,.878.841H39.5a.877.877,0,0,0,.84-.914,8.789,8.789,0,0,1,.79-4.031.879.879,0,0,0-.177-.99L26.886,31.126a7.7,7.7,0,0,0,.93-3.35,9.639,9.639,0,0,0,3.646,1.93,6.4,6.4,0,0,0,2.959.148v.029a4.05,4.05,0,0,0,3.867,4.043A3.689,3.689,0,0,0,38.13,35a3.65,3.65,0,0,0,3.66,3.655,3.723,3.723,0,0,0,.428-.026l2.642,2.637a.88.88,0,0,0,.987.177,8.8,8.8,0,0,1,9.843,1.744,8.7,8.7,0,0,1,2.392,7.794,3,3,0,0,1-.259.85,3.83,3.83,0,0,1-.671-.661c-.076-.088-4.278-4.29-4.278-4.29a4.727,4.727,0,0,0-6.423-.217,1.136,1.136,0,0,0-.084.083,4.707,4.707,0,0,0,.218,6.415l4.959,4.935a3.048,3.048,0,0,1-.851.258,8.705,8.705,0,0,1-9.407-4.57.881.881,0,1,0-1.573.8,10.505,10.505,0,0,0,11.3,5.5c.49-.093,1.982-.373,2.287-1.514.3-1.116-.765-2.031-1.276-2.47-.053-.045-4.2-4.18-4.2-4.18a2.7,2.7,0,1,1,3.806-3.792s4.142,4.142,4.187,4.194c.441.511,1.359,1.573,2.475,1.273,1.14-.307,1.421-1.794,1.514-2.283a10.461,10.461,0,0,0-2.877-9.36ZM39.743,19.631a2.306,2.306,0,0,1,.033,3.215l-2.825,2.818c-.485-.7-3.153-3.349-3.153-3.349l2.7-2.683A2.308,2.308,0,0,1,39.743,19.631Zm-7.756-4.488a2.3,2.3,0,0,1,3.258,3.245l-2.7,2.686-3.255-3.247ZM15.119,19.392a.88.88,0,0,0-.987-.177,8.8,8.8,0,0,1-9.843-1.745A8.7,8.7,0,0,1,1.9,9.678a2.982,2.982,0,0,1,.259-.85,3.831,3.831,0,0,1,.674.656c.076.088,4.278,4.29,4.278,4.29a4.727,4.727,0,0,0,6.423.217.955.955,0,0,0,.084-.084A4.7,4.7,0,0,0,13.4,7.494S8.523,2.688,8.438,2.564a3.01,3.01,0,0,1,.851-.258,8.705,8.705,0,0,1,9.564,12.2.88.88,0,0,0,.177.989l3.021,3.017L18.777,21.78a6.093,6.093,0,0,0-.586.678ZM35.6,27.009a4.055,4.055,0,0,0-.586.744c-1.875,1.16-4.833-.117-6.306-1.536l-.182-.183c-1.348-1.342-2.064-2.055-2.129-2.123h0l-.009-.011-.014-.012a.879.879,0,0,0-1.246,1.239l.018.018a3.331,3.331,0,0,1,.918,2.424,6.8,6.8,0,0,1-2.125,4.6.879.879,0,0,0,1.239,1.241,9.8,9.8,0,0,0,.711-.792L35.989,42.7a5.305,5.305,0,0,1-2.649.636c-.352-.05-.662-.1-.937-.149-2.037-.34-2.948-.391-5.116,1.771l-5.349,5.338-4.42-4.411a.879.879,0,0,0-1.242,1.244l5.039,5.028h0a1.119,1.119,0,0,1,0,1.581l-4.487,4.473a1.128,1.128,0,0,1-1.59,0L2.857,45.857a1.123,1.123,0,0,1,0-1.582L7.339,39.8a1.128,1.128,0,0,1,1.59,0l4.433,4.424A.879.879,0,1,0,14.6,42.981l-3.81-3.8,3.1-3.095c3.466-3.456,4.87-6.172,4.687-9.084a5.3,5.3,0,0,1,1.428-3.978l5.413-5.4a.844.844,0,0,1,1.172,0l.827.82,5.728,5.715q.234.234.461.457a14.45,14.45,0,0,1,2.062,2.312Zm2.87,5.156a2.293,2.293,0,0,1-1.629-3.916l3.3-3.292a2.308,2.308,0,0,1,3.258,0h0a2.3,2.3,0,0,1,0,3.245h0l-3.3,3.293A2.287,2.287,0,0,1,38.473,32.165Zm1.962,4.169a1.9,1.9,0,0,1,0-2.686l4.209-4.2a1.915,1.915,0,0,1,2.7,0h0a1.9,1.9,0,0,1,0,2.685l-4.213,4.2a1.911,1.911,0,0,1-2.7,0Z" transform="translate(0.015 -0.39)" fill="#424242"/></g></svg>